<svg width="120" height="120" viewBox="0 0 120 120" fill="none" xmlns="http://www.w3.org/2000/svg">
<path d="M0 0C6.22999 1.106 12.2231 2.7383 18.2781 4.56081C19.225 4.84262 20.1719 5.12443 21.1475 5.41478C24.15 6.30915 27.151 7.2085 30.152 8.10811C33.162 9.00656 36.1723 9.90401 39.1827 10.8014C41.0491 11.3583 42.9153 11.916 44.7813 12.4745C46.4437 12.972 48.1073 13.4655 49.7723 13.954C51.4759 14.4689 53.1611 15.0448 54.8384 15.6398C62.1838 17.1912 69.312 14.5297 76.2922 12.368C77.8131 11.9081 79.3339 11.4481 80.8548 10.9884C82.9659 10.3484 85.0749 9.70153 87.1839 9.05461C90.8739 7.9235 94.566 6.79961 98.2598 5.68101C100.219 5.08684 102.178 4.48876 104.135 3.8861C109.386 2.2894 114.592 0.942945 120 0C118.147 8.00402 115.935 15.8707 113.574 23.7384C113.143 25.1794 113.143 25.1794 112.705 26.6496C111.506 30.661 110.307 34.672 109.087 38.6768C108.188 41.6329 107.307 44.5938 106.428 47.556C106.151 48.453 105.873 49.3501 105.587 50.2744C102.694 60.1415 105.204 67.6049 108.044 77.2266C108.389 78.4119 108.733 79.5973 109.076 80.783C109.976 83.8829 110.883 86.9808 111.792 90.0782C113.25 95.0546 114.699 100.034 116.147 105.014C116.653 106.751 117.162 108.487 117.672 110.223C117.981 111.281 118.29 112.339 118.599 113.398C118.87 114.323 119.141 115.248 119.421 116.201C120 118.378 120 118.378 120 120C112.004 118.151 104.148 115.939 96.2901 113.574C94.8519 113.143 94.8519 113.143 93.3847 112.705C89.3821 111.507 85.3798 110.309 81.3843 109.087C78.4345 108.187 75.4796 107.306 72.5232 106.428C71.6303 106.151 70.7374 105.873 69.8174 105.587C59.7342 102.63 51.8654 105.092 42.0608 108.044C40.8949 108.389 39.7287 108.733 38.5624 109.076C35.5168 109.975 32.4737 110.882 29.4311 111.792C24.5401 113.252 19.6452 114.699 14.7504 116.147C13.0438 116.653 11.3382 117.162 9.63273 117.672C8.5935 117.981 7.55426 118.29 6.51499 118.599C5.60679 118.87 4.69859 119.141 3.76287 119.421C1.62162 120 1.62162 120 0 120C1.14042 113.351 3.01215 107.004 5.00106 100.566C5.32865 99.4882 5.65548 98.4103 5.98157 97.3322C7.35416 92.7949 8.73044 88.2589 10.131 83.7301C10.9922 80.9435 11.8386 78.1527 12.6758 75.3588C13.1481 73.7973 13.6361 72.2405 14.1245 70.684C17.2667 60.1367 15.1039 52.5326 11.9563 42.2667C11.6113 41.1209 11.2671 39.9749 10.9236 38.8286C10.0248 35.8352 9.11781 32.8444 8.20837 29.8543C6.74828 25.0499 5.29915 20.2423 3.85339 15.4337C3.3482 13.7587 2.83837 12.0852 2.328 10.4118C2.02219 9.39922 1.71638 8.38666 1.4013 7.34342C0.994456 6.00543 0.994456 6.00543 0.579393 4.6404C0 2.43243 0 2.43243 0 0Z" fill="black"/>
</svg>
