<svg
    role="presentation"
    version="1.0"
    xmlns="http://www.w3.org/2000/svg"
    viewBox="0 0 904 944"
    preserveAspectRatio="xMidYMid meet"
  >
    <g transform="translate(0,944) scale(0.1,-0.1)" fill="#0055b3" stroke="none">
      <path
        d="M3526 9275 c-17 -13 -86 -15 -438 -15 l-418 0 0 -33 c0 -28 5 -36 35
-50 26 -12 36 -25 45 -57 7 -27 10 -198 8 -528 -3 -446 -5 -490 -21 -515 -9
-15 -28 -29 -42 -33 -21 -5 -25 -12 -25 -40 l0 -34 225 0 225 0 0 35 c0 25 -4
35 -16 35 -8 0 -29 13 -45 29 l-29 29 0 531 0 531 148 0 c207 -1 265 -26 319
-139 26 -55 31 -60 61 -60 l32 -1 0 165 c0 165 0 165 -22 165 -13 0 -32 -7
-42 -15z"
      />
      <path
        d="M4242 9245 c-42 -34 -123 -65 -169 -65 -20 0 -23 -5 -23 -35 0 -33 2
-35 34 -35 46 0 59 -19 51 -72 -3 -24 -97 -236 -208 -471 -200 -427 -245 -505
-297 -522 -15 -5 -20 -15 -20 -41 l0 -34 180 0 180 0 0 33 c0 30 -4 35 -38 45
-21 7 -49 23 -61 36 -30 32 -26 74 17 169 l31 67 294 0 294 0 37 -87 c35 -79
37 -90 27 -124 -12 -40 -43 -69 -73 -69 -14 0 -18 -8 -18 -35 l0 -35 260 0
260 0 0 29 c0 22 -14 43 -52 83 -60 61 -62 64 -342 653 -271 569 -255 540
-291 542 -21 1 -43 -8 -73 -32z m-22 -328 c0 -2 49 -108 110 -236 60 -129 112
-242 115 -252 6 -18 -3 -19 -228 -19 -128 0 -236 3 -239 6 -4 3 12 45 34 92
137 299 192 412 199 412 5 0 9 -1 9 -3z"
      />
      <path
        d="M5600 9270 c-241 -39 -422 -208 -491 -457 -28 -99 -30 -265 -5 -368
56 -232 226 -412 446 -471 43 -11 102 -17 175 -17 97 -1 120 3 197 30 89 31
204 97 270 155 l38 33 -28 33 -27 33 -35 -26 c-122 -91 -267 -140 -387 -131
-156 12 -249 70 -308 189 -48 99 -58 181 -53 407 5 167 8 193 32 265 35 103
78 162 147 200 50 28 62 30 149 30 75 -1 107 -6 152 -24 65 -25 154 -101 183
-155 16 -30 25 -36 52 -36 l33 0 0 145 c0 162 -4 171 -64 145 -54 -23 -136
-24 -193 -1 -61 24 -201 34 -283 21z"
      />
      <path
        d="M1477 9253 c-19 -18 -5 -53 26 -69 17 -10 37 -24 44 -33 18 -23 18
-1049 0 -1072 -7 -9 -27 -24 -45 -33 -27 -14 -33 -22 -30 -44 l3 -27 310 -3
c171 -1 344 2 386 7 156 21 253 77 304 176 26 51 30 69 30 139 0 68 -4 90 -28
138 -46 94 -146 166 -263 190 -29 6 -54 14 -54 19 0 4 17 13 38 20 62 20 112
48 158 91 99 91 112 265 28 375 -54 70 -145 108 -299 123 -113 11 -598 14
-608 3z m540 -108 c103 -31 147 -95 148 -215 0 -100 -30 -162 -100 -205 -42
-26 -59 -30 -137 -33 l-88 -4 0 236 0 236 63 0 c35 0 86 -7 114 -15z m45 -584
c24 -11 59 -35 77 -53 56 -55 66 -83 66 -188 0 -79 -4 -102 -22 -137 -43 -79
-119 -113 -254 -113 l-89 0 0 261 0 262 89 -5 c62 -4 103 -12 133 -27z"
      />
      <path
        d="M6390 9227 c0 -28 6 -35 45 -56 53 -28 35 -1 346 -515 l229 -379 -32
-59 c-36 -68 -88 -115 -135 -124 -45 -8 -80 16 -88 60 -21 107 -131 160 -216
103 -66 -44 -86 -124 -49 -197 72 -141 346 -143 484 -4 86 88 97 109 316 629
95 226 184 425 198 444 14 18 38 41 54 50 23 13 28 22 26 46 l-3 30 -167 3
-168 2 0 -34 c0 -31 3 -34 34 -40 19 -4 46 -16 61 -28 24 -18 27 -27 23 -62
-6 -45 -189 -488 -205 -493 -13 -5 -301 474 -309 513 -7 38 22 74 61 74 22 0
25 4 25 35 l0 35 -265 0 -265 0 0 -33z"
      />
      <path
        d="M4230 7382 c-113 -70 -312 -194 -442 -275 l-237 -147 -1014 0 -1014
0 -21 -23 c-22 -23 -22 -24 -22 -500 l0 -477 -83 0 c-106 0 -117 -9 -117 -102
0 -68 16 -98 53 -98 13 0 17 -9 17 -34 0 -19 9 -45 21 -60 18 -23 27 -26 85
-26 l64 0 0 -140 0 -140 -98 0 c-90 0 -100 -2 -120 -23 -18 -19 -22 -35 -22
-84 0 -63 21 -103 54 -103 12 0 16 -9 16 -33 0 -47 34 -77 88 -77 l42 0 0
-1520 0 -1520 -418 0 -419 0 -21 -23 c-21 -22 -22 -33 -24 -257 l-3 -234 -155
-63 c-85 -34 -162 -62 -171 -63 -8 0 -26 -12 -40 -26 l-24 -26 -3 -575 -3
-576 28 -29 27 -28 4259 0 c2901 0 4264 3 4278 10 49 27 49 29 49 638 l0 569
-23 21 c-13 12 -34 22 -48 23 -13 0 -94 26 -179 58 l-155 59 -3 239 c-2 235
-3 240 -25 261 -23 21 -29 22 -453 24 l-429 3 -3 1509 -2 1509 32 27 c23 19
32 36 33 61 1 25 7 35 21 37 10 2 29 13 42 25 18 17 22 31 22 82 0 86 -21 105
-113 105 l-67 0 0 140 0 140 28 0 c38 0 61 28 65 76 3 33 8 40 28 42 46 7 59
29 59 102 0 83 -13 98 -90 102 l-55 3 -3 479 c-2 429 -4 482 -19 498 -15 17
-64 18 -1065 18 l-1049 0 -452 275 c-285 174 -460 275 -476 275 -15 0 -111
-54 -231 -128z m369 -39 c69 -42 194 -118 276 -168 153 -94 360 -220 1375
-838 316 -193 582 -356 590 -364 12 -11 -370 -13 -2358 -13 -1305 0 -2372 2
-2372 4 0 5 143 94 1195 746 385 239 799 496 920 571 121 76 226 138 234 138
8 1 71 -33 140 -76z m-1195 -472 c-8 -7 -618 -386 -1214 -754 -107 -66 -204
-128 -216 -139 -18 -16 -40 -18 -212 -18 l-192 0 0 460 0 460 922 0 c531 0
918 -4 912 -9z m4036 -451 l0 -460 -212 0 c-164 0 -215 3 -227 14 -9 7 -122
78 -251 156 -129 79 -316 193 -415 253 -99 60 -317 193 -485 295 -168 101
-309 189 -314 193 -6 5 409 9 947 9 l957 0 0 -460z m-5490 -560 c0 -20 -7 -20
-295 -20 -288 0 -295 0 -295 20 0 20 7 20 295 20 288 0 295 0 295 -20z m4980
0 c0 -20 -5 -20 -2447 -18 -2322 3 -2448 4 -2451 21 -3 16 119 17 2447 17
2445 0 2451 0 2451 -20z m655 0 c0 -13 -39 -15 -282 -18 -279 -2 -283 -2 -283
18 0 20 4 20 283 18 243 -3 282 -5 282 -18z m-5557 -106 c189 -14 81 -24 -248
-24 -296 0 -340 2 -340 15 0 13 34 15 248 15 137 0 290 -3 340 -6z m4780 -11
c3 -10 -462 -13 -2302 -13 -1268 0 -2306 4 -2306 8 0 5 3 12 7 15 3 4 1039 6
2301 5 1826 -2 2296 -6 2300 -15z m692 2 c0 -8 -6 -15 -12 -15 -10 -1 -412 0
-570 0 -47 0 -31 19 20 23 26 2 163 4 305 5 223 2 257 0 257 -13z m-5090 -245
l0 -140 -425 0 -425 0 0 140 0 140 425 0 425 0 0 -140z m4090 0 l0 -140 -2005
0 -2005 0 0 140 0 140 2005 0 2005 0 0 -140z m950 0 l0 -140 -435 0 -435 0 0
140 0 140 435 0 435 0 0 -140z m-5195 -245 c0 -20 -8 -20 -439 -23 -266 -1
-444 2 -449 7 -5 5 -7 17 -4 25 6 15 54 16 449 14 435 -3 443 -3 443 -23z
m4308 19 c51 -5 77 -11 77 -19 0 -7 -7 -16 -16 -19 -20 -8 -4248 -8 -4268 0
-9 3 -16 12 -16 20 0 9 18 14 58 17 105 6 4088 7 4165 1z m1022 -19 c0 -20 -8
-20 -424 -23 -257 -1 -429 2 -434 7 -5 5 -7 17 -4 25 6 15 52 16 434 14 420
-3 428 -3 428 -23z m-5275 -120 c0 -13 -55 -15 -435 -15 -380 0 -435 2 -435
15 0 13 55 15 435 15 380 0 435 -2 435 -15z m4275 0 c0 -7 -706 -11 -2092 -13
-1858 -2 -2093 0 -2093 13 0 13 235 15 2093 13 1386 -2 2092 -6 2092 -13z
m915 0 c0 -13 -53 -15 -415 -15 -362 0 -415 2 -415 15 0 13 53 15 415 15 362
0 415 -2 415 -15z m-5143 -101 c20 -4 33 -15 43 -37 7 -17 24 -41 37 -53 l24
-22 -10 -1139 c-16 -1726 -15 -1680 -41 -1708 -18 -19 -21 -32 -18 -86 l3 -64
-375 -5 c-253 -3 -381 -9 -395 -16 -23 -14 -919 -374 -929 -374 -3 0 -6 88 -6
195 l0 195 419 0 420 0 20 26 21 27 0 1533 0 1534 379 0 c208 0 392 -3 408 -6z
m5083 -1532 l0 -1539 23 -21 c23 -22 28 -22 453 -24 l429 -3 3 -197 c2 -149
-1 -198 -10 -198 -10 0 -326 119 -918 344 l-145 56 -362 0 -363 0 0 67 c0 55
-4 71 -22 90 -27 29 -24 -103 -39 1591 l-11 1252 27 32 c15 18 31 42 36 54 11
30 13 30 497 32 l402 2 0 -1538z m-4330 1515 c0 -7 12 -30 28 -52 l27 -40 -4
-640 c-2 -352 -5 -646 -6 -655 -2 -8 -5 -231 -6 -495 -1 -264 -4 -466 -6 -448
-2 17 -10 36 -17 43 -9 7 -62 10 -152 8 l-139 -3 -3 -274 c-2 -213 1 -276 10
-283 21 -13 272 -10 286 4 20 20 15 -83 -4 -111 -18 -25 -21 -39 -23 -108 l-1
-43 -119 0 -118 0 -7 62 c-3 34 -15 76 -25 94 -19 32 -20 80 -32 1442 l-12
1410 25 33 c14 19 28 42 31 52 6 15 22 17 137 17 98 0 130 -3 130 -13z m730
-5 c0 -10 15 -36 34 -58 l34 -40 -4 -244 c-2 -135 -9 -766 -15 -1403 l-10
-1158 -25 -36 c-19 -28 -24 -49 -24 -95 l0 -59 -132 3 -133 3 0 67 c0 54 -4
71 -22 90 l-22 23 -10 1100 c-6 605 -11 1237 -12 1405 l-2 305 32 46 c17 26
31 52 31 58 0 7 44 11 140 11 129 0 140 -1 140 -18z m740 0 c0 -9 14 -35 32
-56 l31 -38 -7 -841 c-3 -463 -9 -1098 -12 -1412 l-7 -570 -23 -22 c-21 -20
-23 -27 -17 -87 l6 -66 -147 0 -147 0 3 64 c2 51 -1 69 -15 84 -17 19 -19 78
-27 1004 -5 540 -11 1178 -13 1417 l-5 433 29 43 c16 24 29 48 29 54 0 8 46
11 145 11 132 0 145 -2 145 -18z m740 9 c0 -5 16 -31 36 -57 l37 -48 -13
-1410 -13 -1411 -23 -22 c-21 -20 -23 -27 -17 -87 l6 -66 -145 0 -145 0 -6 66
c-4 37 -14 78 -22 91 -19 28 -20 92 -36 1760 l-10 1081 25 37 c14 20 28 45 31
56 6 18 17 19 151 19 81 0 144 -4 144 -9z m770 -2 c0 -6 14 -29 31 -50 l30
-39 -11 -1412 c-12 -1359 -13 -1414 -31 -1440 -14 -20 -19 -45 -19 -93 l0 -65
-149 0 -148 0 -6 66 c-4 39 -15 79 -27 99 -19 31 -20 48 -20 411 0 209 -5 840
-11 1403 l-10 1023 24 37 c13 20 26 44 30 54 6 15 23 17 162 17 106 0 155 -3
155 -11z m-3336 -501 c3 -227 8 -741 11 -1143 3 -401 8 -853 11 -1002 l6 -273
-158 0 -157 0 6 593 c4 325 10 957 13 1402 3 446 7 816 9 823 3 9 38 12 128
12 l124 0 7 -412z m707 27 c4 -209 10 -845 14 -1412 l7 -1033 -152 0 -153 0 7
828 c3 455 9 1092 13 1415 l6 588 126 -3 126 -3 6 -380z m740 -150 c3 -291 10
-927 14 -1413 l8 -883 -153 3 -152 3 2 405 c0 223 5 794 10 1270 5 476 10 929
10 1008 l0 143 128 -3 127 -3 6 -530z m740 -65 c3 -327 10 -963 14 -1412 l8
-818 -158 0 -157 0 6 233 c3 127 8 572 11 987 3 415 8 948 11 1183 l7 428 126
-3 126 -3 6 -595z m744 575 c2 -11 6 -425 9 -920 3 -495 9 -1122 13 -1392 l6
-493 -158 0 -157 0 6 282 c3 156 8 683 11 1173 3 490 8 999 11 1133 l6 243
126 -3 c116 -3 125 -4 127 -23z m759 -127 c3 -84 8 -517 11 -963 3 -445 8
-1014 11 -1262 l7 -453 -158 0 -158 0 6 332 c4 183 9 774 12 1313 3 539 8
1026 11 1083 l6 102 123 0 123 0 6 -152z m-3344 -2318 l0 -251 -117 3 -118 3
-3 235 c-1 129 0 240 2 247 4 10 37 13 121 13 l115 0 0 -250z m-293 -427 c4
-10 -38 -13 -186 -13 -169 0 -213 5 -195 22 2 3 88 5 191 4 139 -1 187 -4 190
-13z m721 0 c3 -10 -39 -13 -187 -13 -104 0 -192 4 -195 9 -11 17 17 19 198
17 134 -1 180 -4 184 -13z m712 10 c58 -15 0 -23 -175 -23 -175 0 -224 6 -182
24 16 6 331 6 357 -1z m753 -8 c-4 -12 -383 -19 -383 -7 0 5 3 12 7 16 12 11
378 3 376 -9z m735 8 c58 -15 -7 -23 -179 -23 -170 0 -202 4 -183 22 7 8 334
9 362 1z m769 0 c13 -3 20 -9 17 -14 -7 -12 -384 -12 -384 0 0 5 8 12 18 14
23 7 321 6 349 0z m-3677 -88 l0 -25 -195 0 -195 0 0 25 0 25 195 0 195 0 0
-25z m708 3 c-3 -23 -4 -23 -195 -26 l-193 -2 0 25 0 25 196 0 195 0 -3 -22z
m730 0 c-3 -23 -5 -23 -192 -26 -111 -1 -194 2 -199 7 -5 5 -7 17 -4 25 6 14
34 16 202 16 l196 0 -3 -22z m750 0 c-3 -23 -4 -23 -194 -26 -169 -2 -192 0
-198 14 -3 9 -4 20 0 25 3 5 93 9 200 9 l195 0 -3 -22z m742 -3 l0 -25 -192 2
c-192 3 -193 3 -196 26 l-3 22 195 0 196 0 0 -25z m760 0 l0 -25 -192 2 c-192
3 -193 3 -196 26 l-3 22 195 0 196 0 0 -25z m1346 -346 c335 -127 613 -235
618 -240 6 -5 -205 -9 -535 -9 l-544 0 -300 -228 c-165 -125 -394 -299 -510
-386 -115 -87 -216 -166 -222 -174 -9 -11 -13 -67 -13 -199 l0 -183 -460 0
-459 0 -3 588 c-3 571 -4 588 -24 632 -28 61 -91 115 -155 134 -65 20 -82 20
-147 1 -66 -20 -119 -66 -148 -130 l-24 -50 0 -587 0 -588 -115 0 -115 0 0
568 c0 344 -4 584 -11 611 -25 110 -127 187 -244 185 -108 -2 -189 -56 -225
-150 -19 -53 -20 -75 -20 -634 l0 -580 -115 0 -115 0 0 578 c0 633 0 631 -59
703 -92 112 -289 112 -381 1 -59 -72 -60 -79 -60 -709 l0 -573 -421 2 -420 3
0 156 c0 87 -4 173 -10 192 -8 28 -33 52 -147 138 -75 57 -307 233 -516 392
l-378 287 -519 0 c-286 0 -519 3 -519 8 0 4 64 33 143 64 78 31 338 136 577
232 l435 176 2776 0 2776 0 609 -231z m-4046 -162 c19 -12 43 -38 54 -57 20
-34 21 -51 24 -617 l3 -583 -166 0 -165 0 0 583 c0 649 -2 627 69 674 47 32
135 32 181 0z m738 -6 c68 -50 67 -38 67 -676 l0 -570 -165 0 -165 0 0 580 c0
567 0 581 21 615 32 55 77 80 144 80 47 0 64 -5 98 -29z m712 10 c19 -10 45
-36 57 -57 l23 -39 0 -582 0 -583 -165 0 -166 0 3 589 c3 580 3 590 24 618 53
72 148 95 224 54z m-3218 -549 l498 -377 0 -157 0 -158 -1120 0 -1120 0 0 535
0 535 623 0 622 0 497 -378z m6696 -159 l2 -533 -1155 0 -1155 0 0 158 1 157
67 50 c90 67 598 452 780 592 l147 112 655 -2 655 -2 3 -532z"
      />
      <path
        d="M3944 6851 c-276 -168 -662 -403 -857 -521 -247 -149 -356 -220 -357
-233 0 -16 88 -17 1753 -15 1440 3 1752 5 1752 16 0 7 -137 95 -305 194 -168
100 -447 265 -620 368 -724 430 -844 500 -854 499 -6 -1 -237 -139 -512 -308z
m1001 -15 c253 -150 622 -369 820 -486 198 -117 367 -219 375 -226 12 -12
-241 -14 -1660 -14 -1405 0 -1672 2 -1660 13 8 8 209 131 445 275 237 143 601
364 810 491 224 136 386 229 395 225 8 -3 222 -128 475 -278z"
      />
      <path
        d="M2942 4770 c-18 -4 -45 -18 -59 -31 -50 -46 -53 -68 -53 -353 0 -231
2 -265 16 -270 9 -3 73 -6 144 -6 98 0 130 3 139 14 9 11 11 86 9 278 -3 243
-5 266 -23 298 -34 57 -104 85 -173 70z m98 -45 c56 -29 60 -49 60 -325 l0
-251 -117 3 -118 3 0 252 c0 240 1 253 21 280 39 52 98 67 154 38z"
      />
      <path
        d="M2835 3647 c-3 -7 -4 -131 -3 -277 l3 -265 144 -3 c109 -2 146 1 153
10 9 15 11 508 2 532 -5 14 -28 16 -150 16 -108 0 -146 -3 -149 -13z m265
-267 l0 -251 -117 3 -118 3 -3 235 c-1 129 0 240 2 247 4 10 37 13 121 13
l115 0 0 -250z"
      />
      <path
        d="M3654 4770 c-43 -9 -80 -39 -99 -77 -13 -27 -15 -75 -13 -305 l3
-273 139 -3 c77 -1 143 1 148 6 5 5 9 132 8 282 -1 258 -2 275 -21 307 -32 52
-100 78 -165 63z m97 -46 c54 -27 59 -57 59 -329 l0 -245 -120 0 -120 0 0 246
c0 207 3 251 16 280 29 60 102 81 165 48z"
      />
      <path
        d="M3545 3647 c-3 -7 -4 -131 -3 -277 l3 -265 148 -3 147 -3 0 281 0
280 -145 0 c-108 0 -147 -3 -150 -13z m265 -267 l0 -250 -120 0 -120 0 0 250
0 250 120 0 120 0 0 -250z"
      />
      <path
        d="M3545 2728 c-3 -7 -4 -135 -3 -283 l3 -270 143 -3 c134 -2 143 -1
150 17 4 11 5 138 2 283 l-5 263 -143 3 c-109 2 -144 0 -147 -10z m263 -270
l2 -248 -120 0 -120 0 0 243 c0 134 3 247 7 251 4 3 57 5 117 4 l111 -3 3
-247z"
      />
      <path
        d="M4403 4770 c-47 -11 -78 -34 -97 -74 -14 -30 -16 -70 -14 -308 l3
-273 145 0 145 0 0 285 c0 269 -1 286 -20 312 -37 49 -100 72 -162 58z m96
-45 c56 -28 61 -58 61 -329 l0 -246 -120 0 -120 0 0 244 c0 155 4 255 11 275
21 61 105 89 168 56z"
      />
      <path
        d="M4290 3380 l0 -281 148 3 147 3 3 278 2 277 -150 0 -150 0 0 -280z
m270 0 l0 -250 -120 0 -120 0 0 250 0 250 120 0 120 0 0 -250z"
      />
      <path
        d="M4295 2728 c-3 -7 -4 -135 -3 -283 l3 -270 145 0 145 0 0 280 0 280
-143 3 c-109 2 -144 0 -147 -10z m263 -270 l2 -248 -120 0 -120 0 0 243 c0
134 3 247 7 251 4 3 57 5 117 4 l111 -3 3 -247z"
      />
      <path
        d="M5143 4769 c-45 -9 -80 -34 -100 -72 -16 -28 -18 -66 -21 -298 -3
-223 -1 -267 11 -277 10 -9 56 -12 153 -10 l139 3 3 270 c1 178 -1 279 -9 296
-27 66 -103 104 -176 88z m121 -68 l31 -31 3 -260 3 -260 -120 0 -121 0 0 250
c0 274 4 294 58 325 43 24 108 14 146 -24z"
      />
      <path
        d="M5026 3644 c-9 -24 -7 -517 2 -532 7 -9 44 -12 153 -10 l144 3 0 275
0 275 -146 3 c-127 2 -147 0 -153 -14z m274 -264 l0 -250 -120 0 -120 0 0 250
0 250 120 0 120 0 0 -250z"
      />
      <path
        d="M5032 2728 c-19 -19 -17 -531 2 -547 9 -8 59 -11 152 -9 l139 3 0
280 0 280 -140 3 c-101 2 -144 -1 -153 -10z m266 -270 l2 -248 -120 0 -120 0
0 243 c0 134 3 247 7 251 4 3 57 5 117 4 l111 -3 3 -247z"
      />
      <path
        d="M5883 4769 c-50 -10 -83 -36 -104 -82 -17 -38 -19 -68 -19 -298 0
-185 3 -258 12 -267 8 -8 54 -12 143 -12 89 0 135 4 143 12 18 18 17 517 -2
561 -28 67 -98 102 -173 86z m119 -68 l28 -31 0 -260 0 -260 -115 0 -115 0 0
256 c0 161 4 263 11 275 35 65 141 76 191 20z"
      />
      <path
        d="M5765 3648 c-3 -7 -4 -132 -3 -278 l3 -265 150 0 150 0 0 275 0 275
-148 3 c-113 2 -149 0 -152 -10z m265 -268 l0 -250 -115 0 -115 0 0 250 0 250
115 0 115 0 0 -250z"
      />
      <path
        d="M5772 2728 c-17 -17 -17 -529 0 -546 8 -8 56 -12 150 -12 134 0 138
1 143 23 3 12 4 139 3 282 l-3 260 -140 3 c-101 2 -144 -1 -153 -10z m258
-268 l0 -250 -115 0 -115 0 0 243 c0 134 3 247 7 250 3 4 55 7 115 7 l108 0 0
-250z"
      />
      <path
        d="M2949 1553 c-15 -2 -51 -18 -80 -36 -43 -26 -59 -44 -84 -91 l-30
-60 -3 -329 c-3 -329 -3 -329 19 -353 22 -24 24 -24 234 -24 195 0 213 2 229
19 15 17 17 50 14 362 -3 333 -4 345 -25 386 -51 95 -158 144 -274 126z m141
-105 c18 -13 43 -36 54 -51 20 -27 21 -42 24 -343 l3 -314 -165 0 -166 0 0
308 c0 280 2 310 19 342 28 54 74 80 141 80 43 0 65 -6 90 -22z"
      />
      <path
        d="M5832 1541 c-31 -11 -70 -35 -92 -56 -67 -65 -70 -86 -70 -460 0
-309 1 -333 18 -348 16 -15 47 -17 229 -17 191 0 211 2 226 18 15 17 17 56 17
358 0 306 -2 343 -19 379 -25 56 -90 111 -152 129 -67 20 -91 20 -157 -3z
m167 -91 c27 -13 46 -33 60 -63 20 -41 21 -59 21 -345 l0 -302 -165 0 -165 0
0 303 c0 297 1 305 23 347 13 25 37 51 57 61 46 25 120 24 169 -1z"
      />
    </g>
</svg>