<?xml version="1.0" encoding="UTF-8"?>
<svg version="1.1" xmlns="http://www.w3.org/2000/svg" width="1206" height="1464">
<path d="M0 0 C1.63593289 1.55104958 3.26129048 3.11334218 4.875 4.6875 C5.60203125 5.34363281 6.3290625 5.99976562 7.078125 6.67578125 C20.63309354 20.01133483 27.4713836 40.87177643 35.2578125 57.84765625 C39.38076302 66.83343085 43.63151125 75.75820193 47.875 84.6875 C53.08875035 95.66617634 58.27597657 106.65496376 63.375 117.6875 C68.45488256 128.67756038 73.62087789 139.62489086 78.8125 150.5625 C84.79262669 163.16144856 90.73285346 175.7773081 96.61694336 188.42138672 C101.16716978 198.19374783 105.76589658 207.94278822 110.375 217.6875 C115.85599897 229.27602019 121.30828735 240.87710842 126.7182312 252.4989624 C131.58654665 262.95492594 136.50514995 273.38660807 141.4375 283.8125 C146.98159164 295.53175819 152.48042586 307.26991744 157.92431641 319.03613281 C162.70036641 329.34413316 167.55281082 339.61535256 172.41113281 349.88476562 C177.54647236 360.74077283 182.64992983 371.61083415 187.71795654 382.49841309 C192.58636824 392.95455739 197.5050625 403.38642323 202.4375 413.8125 C207.98089078 425.53027668 213.47939129 437.26678861 218.92211914 449.03173828 C223.35814819 458.60664239 227.86138114 468.14898509 232.375 477.6875 C237.93943833 489.44668472 243.4597029 501.22413052 248.921875 513.03125 C253.35802201 522.60629998 257.86130326 532.14882051 262.375 541.6875 C267.93943833 553.44668472 273.4597029 565.22413052 278.921875 577.03125 C283.35802201 586.60629998 287.86130326 596.14882051 292.375 605.6875 C297.93943833 617.44668472 303.4597029 629.22413052 308.921875 641.03125 C313.35802201 650.60629998 317.86130326 660.14882051 322.375 669.6875 C327.93943833 681.44668472 333.4597029 693.22413052 338.921875 705.03125 C343.35802201 714.60629998 347.86130326 724.14882051 352.375 733.6875 C357.93943833 745.44668472 363.4597029 757.22413052 368.921875 769.03125 C373.35802201 778.60629998 377.86130326 788.14882051 382.375 797.6875 C387.93943833 809.44668472 393.4597029 821.22413052 398.921875 833.03125 C403.35802201 842.60629998 407.86130326 852.14882051 412.375 861.6875 C417.93943833 873.44668472 423.4597029 885.22413052 428.921875 897.03125 C433.35802201 906.60629998 437.86130326 916.14882051 442.375 925.6875 C447.4140714 936.33644027 452.42848905 946.99516814 457.375 957.6875 C462.30232561 968.33735712 467.29449051 978.95514629 472.3125 989.5625 C477.83614145 1001.23882718 483.33563382 1012.92564323 488.78634644 1024.63619995 C492.10820103 1031.77299415 495.44342821 1038.90303948 498.80859375 1046.01953125 C505.19323015 1059.52278208 511.56358547 1073.03348318 517.76977539 1086.61990356 C518.3707575 1087.93296314 518.97449671 1089.24476512 519.58129883 1090.55514526 C529.42299269 1111.83430523 532.30362606 1134.15452176 524.5859375 1156.60546875 C518.66874632 1172.6432093 509.4897159 1186.6831238 496.1875 1197.5 C495.68468506 1197.91967041 495.18187012 1198.33934082 494.66381836 1198.77172852 C482.23664317 1208.3850617 466.47047963 1212.18679094 451.65518188 1216.41955566 C447.73840146 1217.53904233 443.82597288 1218.67266227 439.91479492 1219.81152344 C439.2300431 1220.01087557 438.54529127 1220.2102277 437.83978939 1220.4156208 C436.42335767 1220.82801926 435.00694141 1221.24047085 433.59053993 1221.65297318 C431.38800641 1222.29387481 429.18503348 1222.93324754 426.98197937 1223.57235718 C409.87455346 1228.53936469 392.81250017 1233.6577602 375.7484436 1238.7713623 C367.33051646 1241.29389135 358.91116262 1243.81165118 350.49179649 1246.32937241 C348.62270615 1246.88830486 346.75362782 1247.44727752 344.88456154 1248.00629044 C326.15798625 1253.60699421 307.42428656 1259.18356533 288.6875 1264.75 C287.18321693 1265.19692846 285.6789343 1265.6438584 284.1746521 1266.09078979 C278.86931117 1267.66700803 273.56396432 1269.24320631 268.2585659 1270.81923103 C249.88718783 1276.27667201 231.51862601 1281.74356921 213.15025711 1287.21112823 C209.6188462 1288.26228299 206.08741865 1289.31338186 202.55599117 1290.36448097 C190.9956145 1293.80533182 179.43530218 1297.24639889 167.875 1300.6875 C153.66671082 1304.91681502 139.4583939 1309.14603681 125.25 1313.375 C124.37585701 1313.6351804 123.50171402 1313.89536079 122.60108185 1314.16342545 C95.85217823 1322.12494189 69.10162967 1330.08090906 42.34979248 1338.03256226 C18.41493589 1345.14695094 -5.51805741 1352.26758468 -29.45014191 1359.39129257 C-64.46686134 1369.8144893 -99.48587859 1380.22993153 -134.50665283 1390.63949585 C-146.74673417 1394.27773648 -158.98669187 1397.91639284 -171.22651672 1401.55549622 C-178.14112616 1403.61130965 -185.0557659 1405.66702061 -191.97063541 1407.72195911 C-195.7786285 1408.85360837 -199.58658855 1409.98536872 -203.39453125 1411.1171875 C-204.52838288 1411.45419457 -204.52838288 1411.45419457 -205.68514061 1411.79800987 C-216.29564608 1414.95193829 -226.90456171 1418.11116901 -237.51242065 1421.27398682 C-243.47869065 1423.05285255 -249.44537635 1424.83032207 -255.41215324 1426.60748672 C-260.25847999 1428.05107373 -265.10425337 1429.49649852 -269.94960308 1430.94336128 C-272.95235746 1431.8395115 -275.95565044 1432.73384617 -278.95908546 1433.62771225 C-280.33502404 1434.03760568 -281.7107469 1434.44822419 -283.08621788 1434.85968399 C-311.42444195 1443.33518867 -311.42444195 1443.33518867 -320.125 1443.6875 C-321.0221875 1443.72746094 -321.919375 1443.76742188 -322.84375 1443.80859375 C-346.23589531 1444.33183911 -367.89832146 1436.60995051 -385.125 1420.6875 C-398.27484052 1407.94071973 -407.66040715 1390.92511193 -417.32958984 1375.54003906 C-420.30786504 1370.80816968 -423.31018076 1366.09163695 -426.3125 1361.375 C-426.89902344 1360.45283691 -427.48554688 1359.53067383 -428.08984375 1358.58056641 C-431.96570575 1352.4919435 -435.8718888 1346.42389838 -439.80151367 1340.36987305 C-443.93686408 1333.99332312 -448.03164411 1327.5910669 -452.125 1321.1875 C-456.60734399 1314.17594515 -461.0955231 1307.1687121 -465.625 1300.1875 C-470.86103944 1292.11727407 -476.04107597 1284.01151525 -481.22265625 1275.90625 C-485.00697823 1269.98920766 -488.80209502 1264.07968382 -492.625 1258.1875 C-497.86103944 1250.11727407 -503.04107597 1242.01151525 -508.22265625 1233.90625 C-512.00697874 1227.98920686 -515.80219264 1222.07974766 -519.625 1216.1875 C-527.55337768 1203.96364538 -535.38013952 1191.67435095 -543.22753906 1179.3984375 C-550.14116786 1168.58439937 -557.05675466 1157.77238784 -564.04418945 1147.00585938 C-568.38283853 1140.31032325 -572.65667149 1133.57386825 -576.93408203 1126.83911133 C-580.4725399 1121.27196989 -584.03261742 1115.71998236 -587.625 1110.1875 C-592.44235554 1102.76848658 -597.19113956 1095.30690445 -601.93359375 1087.83984375 C-605.4722417 1082.27247422 -609.0325485 1076.720288 -612.625 1071.1875 C-617.32230622 1063.95103929 -621.95953948 1056.67739865 -626.58642578 1049.39575195 C-630.38066811 1043.42568634 -634.18358276 1037.46129904 -637.99731445 1031.50366211 C-639.3341056 1029.41528242 -640.66987812 1027.32625036 -642.00463867 1025.23657227 C-645.45075592 1019.84505952 -648.91575848 1014.46719514 -652.4140625 1009.109375 C-668.55449377 984.31817707 -681.56092533 960.65878782 -675.9375 930 C-671.789455 911.56639816 -661.85745105 896.50619605 -652.00048828 880.70166016 C-648.71174565 875.41621151 -645.44950073 870.11448068 -642.1875 864.8125 C-641.17683472 863.17039551 -641.17683472 863.17039551 -640.14575195 861.49511719 C-635.13865225 853.35265221 -630.16573726 845.18979748 -625.20336914 837.02001953 C-620.84739189 829.8557546 -616.4412446 822.7237128 -612.01879883 815.6003418 C-608.01908187 809.15053327 -604.06420333 802.67441705 -600.125 796.1875 C-595.1744838 788.03679462 -590.18430788 779.91223556 -585.15795898 771.80810547 C-575.68692941 756.53647993 -566.26776791 741.23305191 -556.9375 725.875 C-552.04745511 717.8261001 -547.11740761 709.80341344 -542.15283203 701.80029297 C-535.80164734 691.56093934 -529.49361785 681.29510094 -523.18212891 671.03125 C-521.13724572 667.70740475 -519.09042134 664.38476304 -517.04296875 661.0625 C-510.64756298 650.68286891 -504.26737025 640.29475016 -497.9375 629.875 C-493.04747409 621.82608874 -488.11740748 613.80341323 -483.15283203 605.80029297 C-478.85786652 598.87596738 -474.58150491 591.94035926 -470.3125 585 C-469.30533936 583.36260864 -469.30533936 583.36260864 -468.27783203 581.69213867 C-466.90959668 579.46749176 -465.54143296 577.24280079 -464.17333984 575.01806641 C-461.48904649 570.6534502 -458.80355651 566.28957103 -456.11791992 561.92578125 C-454.78854659 559.76569208 -453.45928239 557.60553575 -452.13012695 555.4453125 C-448.77337398 549.98981959 -445.41528709 544.53515559 -442.0546875 539.08203125 C-435.65561494 528.69574371 -429.27131143 518.30123783 -422.9375 507.875 C-418.04747409 499.82608874 -413.11740748 491.80341323 -408.15283203 483.80029297 C-403.85786652 476.87596738 -399.58150491 469.94035926 -395.3125 463 C-394.64105957 461.90840576 -393.96961914 460.81681152 -393.27783203 459.69213867 C-391.90959668 457.46749176 -390.54143296 455.24280079 -389.17333984 453.01806641 C-385.82506312 447.57382432 -382.47495241 442.1307111 -379.125 436.6875 C-377.79165758 434.52083892 -376.45832426 432.35417225 -375.125 430.1875 C-367.125 417.1875 -367.125 417.1875 -365.12451172 413.93676758 C-363.79273332 411.77258703 -362.46102746 409.60836185 -361.12939453 407.4440918 C-357.77286745 401.98901703 -354.41503814 396.53475164 -351.0546875 391.08203125 C-344.65561494 380.69574371 -338.27131143 370.30123783 -331.9375 359.875 C-327.04747409 351.82608874 -322.11740748 343.80341323 -317.15283203 335.80029297 C-310.80164734 325.56093934 -304.49361785 315.29510094 -298.18212891 305.03125 C-296.13724572 301.70740475 -294.09042134 298.38476304 -292.04296875 295.0625 C-285.64756298 284.68286891 -279.26737025 274.29475016 -272.9375 263.875 C-268.04747409 255.82608874 -263.11740748 247.80341323 -258.15283203 239.80029297 C-251.80164734 229.56093934 -245.49361785 219.29510094 -239.18212891 209.03125 C-237.13724572 205.70740475 -235.09042134 202.38476304 -233.04296875 199.0625 C-226.64756298 188.68286891 -220.26737025 178.29475016 -213.9375 167.875 C-209.04884331 159.82834245 -204.1197231 151.80818781 -199.15722656 143.80688477 C-189.09940202 127.58932391 -179.11026277 111.33020032 -169.20336914 95.02001953 C-164.84602169 87.85350104 -160.4388414 80.71899175 -156.0144043 73.59375 C-152.64636223 68.16336098 -149.30964698 62.71506887 -145.99536133 57.25170898 C-143.65327067 53.39146921 -141.30365506 49.53585255 -138.95166016 45.68164062 C-137.70749311 43.64228421 -136.46504804 41.60187648 -135.22412109 39.56054688 C-117.96156981 11.22464727 -101.93167874 -11.09702522 -68.125 -19.3125 C-44.31435963 -24.28167712 -17.99775909 -15.67902939 0 0 Z M-42.5 168.8125 C-47.01188253 176.79506139 -48.26323805 186.55398122 -50.08227539 195.43481445 C-50.36586372 196.80289771 -50.64984711 198.17089912 -50.93418884 199.53882599 C-51.70650496 203.25985784 -52.47334422 206.98199958 -53.23924947 210.70435548 C-54.06087507 214.69247388 -54.88771666 218.67951088 -55.713974 222.66667175 C-57.13380127 229.5215101 -58.55051757 236.37698513 -59.96508789 243.23291016 C-62.20980107 254.1119462 -64.46086501 264.98966318 -66.71289062 275.8671875 C-67.47419078 279.54470014 -68.23544401 283.2222225 -68.99667358 286.89974976 C-69.18525574 287.81078158 -69.3738379 288.7218134 -69.56813467 289.66045225 C-70.90784901 296.13299297 -72.2466886 302.60571426 -73.58511353 309.07852173 C-79.56592082 338.00162067 -85.57252424 366.9192605 -91.59384155 395.83395386 C-94.20499432 408.37330128 -96.81346504 420.91320679 -99.421875 433.453125 C-99.68645697 434.72506651 -99.95103893 435.99700802 -100.22363853 437.30749321 C-116.74205947 516.7205903 -133.22402301 596.14131388 -163.12442875 740.67218173 C-167.44027827 761.54376278 -171.75840042 782.41487251 -176.07818127 803.28564024 C-189.04328237 865.92622036 -201.99593584 928.56935156 -214.92751503 991.21686125 C-215.43699903 993.68507304 -215.94648805 996.1532838 -216.45597839 998.62149429 C-219.28964405 1012.34912253 -222.12321747 1026.0767698 -224.95672214 1039.80443126 C-235.33823769 1090.10042239 -245.72094851 1140.39616454 -256.125 1190.6875 C-256.38225105 1191.93104248 -256.63950211 1193.17458496 -256.90454865 1194.45581055 C-260.29638545 1210.85119728 -263.6908555 1227.24603605 -267.08905029 1243.6401062 C-268.06195402 1248.33391193 -269.03414091 1253.0278652 -270.00567627 1257.72195435 C-271.1269403 1263.13919914 -272.24979416 1268.55611191 -273.37392235 1273.97276306 C-273.78309868 1275.94566842 -274.19172571 1277.9186878 -274.59975624 1279.89183044 C-275.15669293 1282.58453767 -275.71566343 1285.27681501 -276.27514648 1287.96899414 C-276.43446215 1288.74163384 -276.59377781 1289.51427355 -276.75792122 1290.31032658 C-277.50454577 1293.89273722 -278.30493571 1297.44606828 -279.21717834 1300.99021912 C-281.24016309 1309.22921935 -280.0766824 1315.25885029 -276.125 1322.6875 C-273.81226558 1325.5846941 -273.81226558 1325.5846941 -271.125 1327.6875 C-270.34125 1328.38875 -269.5575 1329.09 -268.75 1329.8125 C-261.04960969 1335.3127788 -253.45323689 1336.01421569 -244.125 1334.6875 C-241.04475996 1333.88431913 -238.0785647 1332.81880337 -235.0859375 1331.73828125 C-226.25211718 1328.67894115 -217.35746469 1325.89641293 -208.390625 1323.25390625 C-207.72808527 1323.05832941 -207.06554554 1322.86275257 -206.38292885 1322.66124916 C-202.13086584 1321.40672498 -197.87718892 1320.15774434 -193.62313461 1318.90999222 C-189.75674893 1317.77492475 -185.89171954 1316.63525802 -182.02661133 1315.49584961 C-177.11815755 1314.04908813 -172.20963051 1312.60257919 -167.3006134 1311.1577301 C-149.647729 1305.9617739 -132.00397548 1300.73509996 -114.36106873 1295.50538254 C-110.94239297 1294.49210479 -107.52361716 1293.47916485 -104.10484505 1292.46621227 C-79.252926 1285.10261217 -54.40643859 1277.72083859 -29.56253052 1270.33026123 C-7.15503413 1263.66457705 15.25743989 1257.01586925 37.67327881 1250.3782959 C103.43424883 1230.90567423 169.1636782 1211.32697666 234.875 1191.6875 C235.82279327 1191.40423355 236.77058655 1191.1209671 237.74710083 1190.82911682 C244.15290601 1188.91459974 250.55866314 1186.99992198 256.96438408 1185.08512306 C259.23296674 1184.40701178 261.50155835 1183.7289304 263.77015877 1183.05087852 C276.54770412 1179.23182083 289.32448233 1175.41023039 302.09936523 1171.58227539 C306.66384144 1170.21481181 311.22838287 1168.84756618 315.79296875 1167.48046875 C316.91123487 1167.14551203 318.029501 1166.81055531 319.18165398 1166.46544838 C333.24764861 1162.25340521 347.32223594 1158.07240123 361.41006279 1153.93398094 C366.34016947 1152.48414051 371.26805302 1151.02676108 376.19582081 1149.56899357 C380.64063579 1148.25516442 385.08900002 1146.95446239 389.54072475 1145.66425228 C391.58280801 1145.06984228 393.62269315 1144.46850921 395.66178894 1143.86393738 C398.07581564 1143.14821984 400.49304685 1142.44316468 402.91426086 1141.75215149 C414.25576999 1138.34896044 422.05187065 1133.25586237 427.90625 1122.85546875 C430.9147802 1116.239488 431.38513999 1108.04103369 429.01000977 1101.19384766 C425.65503147 1092.9448714 421.74968629 1084.92091188 417.91906738 1076.88452148 C416.01650282 1072.89217917 414.12377506 1068.89517662 412.23046875 1064.8984375 C411.66593491 1063.70737396 411.66593491 1063.70737396 411.08999634 1062.49224854 C406.42970111 1052.65063286 401.8852602 1042.75627314 397.33740234 1032.86230469 C394.71681642 1027.17313952 392.07678541 1021.49300839 389.4375 1015.8125 C388.89706055 1014.64912109 388.35662109 1013.48574219 387.79980469 1012.28710938 C386.70532623 1009.93127545 385.61076221 1007.57548128 384.51611328 1005.21972656 C381.80115806 999.37623175 379.08819703 993.5318113 376.375 987.6875 C375.5696582 985.95306641 375.5696582 985.95306641 374.74804688 984.18359375 C372.05116594 978.3754252 369.35496912 972.56694089 366.66015625 966.7578125 C359.34219011 950.9849363 351.99850542 935.22423476 344.64111328 919.46972656 C342.00925654 913.83384968 339.37919121 908.19713683 336.74899292 902.56048584 C335.29106887 899.43612288 333.83302854 896.31181419 332.375 893.1875 C331.79166611 891.93750026 331.20833278 890.68750026 330.625 889.4375 C330.33625 888.81875 330.0475 888.2 329.75 887.5625 C324.20833333 875.6875 318.66666667 863.8125 313.125 851.9375 C312.83623993 851.31872986 312.54747986 850.69995972 312.24996948 850.06243896 C311.66673342 848.81264449 311.08350181 847.56284795 310.50027466 846.31304932 C309.04048964 843.18488764 307.58062685 840.0567623 306.12060547 836.92871094 C303.51285486 831.34149069 300.90559829 825.75404344 298.30134583 820.16519165 C291.49435354 805.55723404 284.65716331 790.96400098 277.78665161 776.38580322 C273.30545779 766.87571856 268.85329546 757.35316643 264.4375 747.8125 C259.10799177 736.29875897 253.69841945 724.82419329 248.27175903 713.35601807 C243.07590128 702.37367083 237.92927422 691.37047659 232.828125 680.34375 C228.39197799 670.76870002 223.88869674 661.22617949 219.375 651.6875 C213.81056167 639.92831528 208.2902971 628.15086948 202.828125 616.34375 C198.39197799 606.76870002 193.88869674 597.22617949 189.375 587.6875 C183.81056167 575.92831528 178.2902971 564.15086948 172.828125 552.34375 C168.39197773 542.76869945 163.8886477 533.22620314 159.375 523.6875 C153.78840398 511.88091195 148.24365316 500.05695156 142.7578125 488.203125 C138.5009913 479.01346137 134.19373589 469.8481917 129.875 460.6875 C124.48043711 449.24435232 119.12439248 437.78469173 113.80859375 426.3046875 C109.53333705 417.08189785 105.20949823 407.88255959 100.875 398.6875 C94.34908785 384.84195489 87.87934435 370.97147646 81.44726562 357.08203125 C78.78034308 351.32412891 76.10918286 345.56819478 73.4375 339.8125 C72.90358643 338.66217285 72.36967285 337.5118457 71.81958008 336.32666016 C67.84873859 327.77526932 63.86432798 319.23027553 59.875 310.6875 C53.71802363 297.50290667 47.58523058 284.3071979 41.46191406 271.10693359 C39.91082112 267.76468625 38.35806006 264.42321963 36.8046875 261.08203125 C31.30978105 249.26104875 25.82635622 237.43479245 20.36157227 225.59985352 C18.8323945 222.28848672 17.29856782 218.97933023 15.76147461 215.67163086 C12.27630655 208.15807434 8.82737898 200.63560165 5.53785706 193.03395081 C4.12540632 189.77162417 2.6942416 186.51764556 1.26260376 183.26370239 C0.59381464 181.72732765 -0.06495801 180.18654916 -0.71304321 178.6413269 C-4.06937039 169.39492521 -4.06937039 169.39492521 -11.08984375 163.26171875 C-13.09588535 162.81022934 -13.09588535 162.81022934 -15.125 162.6875 C-16.43339844 162.54441406 -17.74179687 162.40132812 -19.08984375 162.25390625 C-28.14470906 162.24500274 -35.48507386 162.53598713 -42.5 168.8125 Z " fill="#123A50" transform="translate(677.125,20.3125)"/>
</svg>
