<svg version="1.0" xmlns="http://www.w3.org/2000/svg"
 width="225.000000pt" height="225.000000pt" viewBox="0 0 225.000000 225.000000"
 preserveAspectRatio="xMidYMid meet" >

<g transform="translate(0.000000,225.000000) scale(0.100000,-0.100000)"
fill="#1D548C" stroke="none">
<path d="M1068 2023 c-25 -54 -63 -137 -84 -185 l-39 -87 -262 -1 -263 0 0
-650 0 -650 103 0 102 0 357 818 c197 449 360 825 364 835 6 16 -4 17 -113 17
l-120 0 -45 -97z"/>
<path d="M1650 1723 c-89 -208 -164 -384 -167 -390 -4 -10 33 -13 166 -13
l171 0 0 390 c0 215 -2 390 -4 390 -2 0 -77 -170 -166 -377z"/>
<path d="M1239 738 c-63 -149 -115 -275 -117 -280 -2 -4 151 -8 341 -8 l344 0
6 143 c4 78 7 204 7 280 l0 137 -233 0 -234 0 -114 -272z"/>
</g> 
</svg>
