<svg version="1.1" xmlns="http://www.w3.org/2000/svg" width="206" height="217">
<path d="M0 0 C7.68365053 1.36406094 15.07513139 3.37723069 22.54296875 5.625 C23.71080399 5.97256348 24.87863922 6.32012695 26.0818634 6.67822266 C29.78500832 7.78128908 33.48628431 8.89047949 37.1875 10 C40.89984316 11.10809023 44.61255374 12.21494337 48.32527161 13.32177734 C50.62724795 14.00856438 52.9289289 14.69634253 55.23027039 15.38525391 C57.28053441 15.99882931 59.33229587 16.60743331 61.38583374 17.20996094 C63.48698797 17.84496031 65.56531623 18.55524822 67.6340332 19.2890625 C76.69339991 21.20252271 85.48483933 17.91996142 94.09375 15.25390625 C95.96945097 14.68663861 97.84515343 14.11937582 99.72093964 13.5523901 C102.32461106 12.76296839 104.92570098 11.96522597 107.52679443 11.1673584 C112.07777527 9.77231927 116.63145281 8.38618445 121.18713379 7.00657654 C123.60396871 6.27376993 126.01934602 5.53613251 128.4329834 4.79286194 C134.90897341 2.82359857 141.32969891 1.16296551 148 0 C145.71515944 9.87162159 142.98700058 19.5738598 140.07421875 29.27734375 C139.54358322 31.05463364 139.54358322 31.05463364 139.00222778 32.86782837 C137.52450963 37.81527392 136.04559111 42.76213474 134.54077148 47.70141602 C133.43231612 51.34729359 132.34533545 54.99901867 131.26171875 58.65234375 C130.91912521 59.75875717 130.57653168 60.86517059 130.22355652 62.00511169 C126.65566853 74.17456198 129.75156564 83.37941897 133.25390625 95.24609375 C133.67918546 96.7079653 134.10372867 98.17005115 134.52757263 99.63233948 C135.6374843 103.45559791 136.75575719 107.27635487 137.87634277 111.09649658 C139.67528643 117.23405966 141.46192854 123.37521004 143.24748039 129.51667976 C143.87177597 131.6591242 144.50000444 133.80038546 145.12879944 135.94151306 C145.50986956 137.24670725 145.89085085 138.55192737 146.27172852 139.85717773 C146.60624527 140.99807358 146.94076202 142.13896942 147.28541565 143.31443787 C148 146 148 146 148 148 C138.13817829 145.7194179 128.44906308 142.9910706 118.7578125 140.07421875 C116.98407257 139.54358322 116.98407257 139.54358322 115.17449951 139.00222778 C110.23788781 137.52511476 105.30176578 136.04725455 100.37402344 134.54077148 C96.73592642 133.43098501 93.09151456 132.34453208 89.4453125 131.26171875 C88.34406036 130.91912521 87.24280823 130.57653168 86.10818481 130.22355652 C73.67220137 126.57726269 63.96727245 129.61393521 51.875 133.25390625 C50.43702143 133.67932073 48.99878402 134.10386115 47.56030273 134.52757263 C43.80401907 135.6361367 40.05084695 136.75486683 36.29840088 137.87634277 C30.26611349 139.6772025 24.22908424 141.46210597 18.19219971 143.24748039 C16.08733696 143.87154244 13.98376721 144.4998142 11.88037109 145.12879944 C10.59865537 145.50985167 9.31691827 145.89083202 8.03515625 146.27172852 C6.9150415 146.60624527 5.79492676 146.94076202 4.64086914 147.28541565 C2 148 2 148 0 148 C1.40651784 139.79972585 3.71498882 131.97204757 6.16796875 124.03125 C6.57200487 122.70214733 6.97508818 121.37275469 7.37727356 120.04309082 C9.07012904 114.44706322 10.7675381 108.85258569 12.49487305 103.26708984 C13.55705658 99.8302681 14.60093977 96.38832783 15.63347816 92.94248962 C16.21598992 91.01661916 16.81786516 89.09663911 17.42021179 87.17687988 C21.29558103 74.16861355 18.62816187 64.79018998 14.74609375 52.12890625 C14.32062061 50.71576568 13.89608145 49.3023436 13.47242737 47.88865662 C12.36394217 44.19680641 11.2452992 40.5081229 10.12365723 36.82025146 C8.32288356 30.89493403 6.5356243 24.96554971 4.75251961 19.03489494 C4.12944201 16.96908486 3.50066123 14.90507452 2.87120056 12.84120178 C2.49403397 11.59237717 2.11686737 10.34355255 1.72827148 9.05688477 C1.22649635 7.4066909 1.22649635 7.4066909 0.71458435 5.72315979 C0 3 0 3 0 0 Z " fill="#000000" transform="translate(29,33)"/>
</svg>
