<svg role="presentation" viewBox="0 0 200 195" fill="none" xmlns="http://www.w3.org/2000/svg">
    <path
      d="M97.2 106.4C97.2 124.957 82.1568 140 63.6 140C45.0432 140 30 124.957 30 106.4C30 87.843 45.0432 72.8 63.6 72.8C82.1568 72.8 97.2 87.843 97.2 106.4Z"
      fill="#5D00F5"
    />
    <path
      d="M170 106.4C170 124.957 154.957 140 136.4 140C117.843 140 102.8 124.957 102.8 106.4C102.8 87.843 117.843 72.8 136.4 72.8C154.957 72.8 170 87.843 170 106.4Z"
      fill="#0066FF"
    />
    <path
      d="M63.6 67.2C82.1568 67.2 97.2 52.1568 97.2 33.6C97.2 15.0432 82.1568 0 63.6 0C45.0432 0 30 15.0432 30 33.6C30 52.1568 45.0432 67.2 63.6 67.2Z"
      fill="#EB236B"
    />
    <path
      d="M170 33.6C170 52.1568 154.957 67.2 136.4 67.2C117.843 67.2 102.8 52.1568 102.8 33.6C102.8 15.0432 117.843 0 136.4 0C154.957 0 170 15.0432 170 33.6Z"
      fill="#4BD0A0"
    />
    <path
      d="M133.6 70C133.6 88.557 118.557 103.6 100 103.6C81.4432 103.6 66.4 88.557 66.4 70C66.4 51.4432 81.4432 36.4 100 36.4C118.557 36.4 133.6 51.4432 133.6 70Z"
      fill="white"
    />
    <path
      d="M9.17875 172.62V178.92H15.4188V172.62H19.8888V189H15.4188V182.25H9.17875V189H4.70875V172.62H9.17875ZM35.222 172.32C36.742 172.32 38.042 172.61 39.122 173.19C40.222 173.77 41.072 174.61 41.672 175.71C42.272 176.81 42.572 178.16 42.572 179.76V181.92H32.012C32.052 183.18 32.422 184.17 33.122 184.89C33.842 185.61 34.832 185.97 36.092 185.97C37.152 185.97 38.112 185.87 38.972 185.67C39.832 185.45 40.722 185.12 41.642 184.68V188.13C40.842 188.53 39.992 188.82 39.092 189C38.212 189.2 37.142 189.3 35.882 189.3C34.242 189.3 32.792 189 31.532 188.4C30.272 187.78 29.282 186.85 28.562 185.61C27.842 184.37 27.482 182.81 27.482 180.93C27.482 179.01 27.802 177.42 28.442 176.16C29.102 174.88 30.012 173.92 31.172 173.28C32.332 172.64 33.682 172.32 35.222 172.32ZM35.252 175.5C34.392 175.5 33.672 175.78 33.092 176.34C32.532 176.9 32.202 177.77 32.102 178.95H38.372C38.372 178.29 38.252 177.7 38.012 177.18C37.792 176.66 37.452 176.25 36.992 175.95C36.532 175.65 35.952 175.5 35.252 175.5ZM63.6566 175.98H58.2866V189H53.8166V175.98H48.4466V172.62H63.6566V175.98ZM85.1657 180.78C85.1657 182.14 84.9757 183.35 84.5957 184.41C84.2357 185.47 83.7057 186.37 83.0057 187.11C82.3257 187.83 81.4957 188.38 80.5157 188.76C79.5357 189.12 78.4257 189.3 77.1857 189.3C76.0457 189.3 74.9857 189.12 74.0057 188.76C73.0457 188.38 72.2157 187.83 71.5157 187.11C70.8157 186.37 70.2657 185.47 69.8657 184.41C69.4857 183.35 69.2957 182.14 69.2957 180.78C69.2957 178.96 69.6157 177.43 70.2557 176.19C70.8957 174.93 71.8157 173.97 73.0157 173.31C74.2157 172.65 75.6357 172.32 77.2757 172.32C78.8157 172.32 80.1757 172.65 81.3557 173.31C82.5357 173.97 83.4657 174.93 84.1457 176.19C84.8257 177.43 85.1657 178.96 85.1657 180.78ZM73.8557 180.78C73.8557 181.86 73.9657 182.77 74.1857 183.51C74.4257 184.23 74.7957 184.78 75.2957 185.16C75.7957 185.52 76.4457 185.7 77.2457 185.7C78.0457 185.7 78.6857 185.52 79.1657 185.16C79.6657 184.78 80.0257 184.23 80.2457 183.51C80.4857 182.77 80.6057 181.86 80.6057 180.78C80.6057 179.7 80.4857 178.8 80.2457 178.08C80.0257 177.36 79.6657 176.82 79.1657 176.46C78.6657 176.1 78.0157 175.92 77.2157 175.92C76.0357 175.92 75.1757 176.33 74.6357 177.15C74.1157 177.95 73.8557 179.16 73.8557 180.78ZM107.43 189H102.96V175.98H98.8499C98.6499 178.38 98.3999 180.43 98.0999 182.13C97.8199 183.81 97.4599 185.18 97.0199 186.24C96.5999 187.3 96.0599 188.08 95.3999 188.58C94.7399 189.06 93.9299 189.3 92.9699 189.3C92.4499 189.3 91.9799 189.26 91.5599 189.18C91.1399 189.1 90.7599 188.98 90.4199 188.82V185.25C90.6399 185.33 90.8699 185.4 91.1099 185.46C91.3499 185.52 91.5999 185.55 91.8599 185.55C92.1399 185.55 92.3999 185.44 92.6399 185.22C92.8999 185 93.1399 184.61 93.3599 184.05C93.5999 183.49 93.8199 182.72 94.0199 181.74C94.2199 180.76 94.3999 179.53 94.5599 178.05C94.7399 176.55 94.8999 174.74 95.0399 172.62H107.43V189ZM130.876 180.78C130.876 182.14 130.686 183.35 130.306 184.41C129.946 185.47 129.416 186.37 128.716 187.11C128.036 187.83 127.206 188.38 126.226 188.76C125.246 189.12 124.136 189.3 122.896 189.3C121.756 189.3 120.696 189.12 119.716 188.76C118.756 188.38 117.926 187.83 117.226 187.11C116.526 186.37 115.976 185.47 115.576 184.41C115.196 183.35 115.006 182.14 115.006 180.78C115.006 178.96 115.326 177.43 115.966 176.19C116.606 174.93 117.526 173.97 118.726 173.31C119.926 172.65 121.346 172.32 122.986 172.32C124.526 172.32 125.886 172.65 127.066 173.31C128.246 173.97 129.176 174.93 129.856 176.19C130.536 177.43 130.876 178.96 130.876 180.78ZM119.566 180.78C119.566 181.86 119.676 182.77 119.896 183.51C120.136 184.23 120.506 184.78 121.006 185.16C121.506 185.52 122.156 185.7 122.956 185.7C123.756 185.7 124.396 185.52 124.876 185.16C125.376 184.78 125.736 184.23 125.956 183.51C126.196 182.77 126.316 181.86 126.316 180.78C126.316 179.7 126.196 178.8 125.956 178.08C125.736 177.36 125.376 176.82 124.876 176.46C124.376 176.1 123.726 175.92 122.926 175.92C121.746 175.92 120.886 176.33 120.346 177.15C119.826 177.95 119.566 179.16 119.566 180.78ZM149.78 172.62V175.98H142.94V189H138.47V172.62H149.78ZM161.016 179.1C161.016 179.44 160.996 179.86 160.956 180.36C160.936 180.86 160.906 181.37 160.866 181.89C160.846 182.41 160.816 182.87 160.776 183.27C160.736 183.67 160.706 183.95 160.686 184.11L168.246 172.62H173.616V189H169.296V182.46C169.296 181.92 169.316 181.33 169.356 180.69C169.396 180.03 169.436 179.42 169.476 178.86C169.536 178.28 169.576 177.84 169.596 177.54L162.066 189H156.696V172.62H161.016V179.1ZM184.678 189H179.848L184.258 182.52C183.698 182.28 183.168 181.96 182.668 181.56C182.188 181.14 181.798 180.61 181.498 179.97C181.198 179.33 181.048 178.57 181.048 177.69C181.048 176.05 181.668 174.8 182.908 173.94C184.148 173.06 185.738 172.62 187.678 172.62H195.298V189H190.828V182.91H188.368L184.678 189ZM185.428 177.72C185.428 178.4 185.698 178.94 186.238 179.34C186.778 179.72 187.478 179.91 188.338 179.91H190.828V175.77H187.768C186.968 175.77 186.378 175.97 185.998 176.37C185.618 176.75 185.428 177.2 185.428 177.72Z"
      fill="black"
    />
  </svg>
