<?xml version="1.0" encoding="UTF-8"?>
<svg version="1.1" xmlns="http://www.w3.org/2000/svg" width="225" height="225">
<path d="M0 0 C74.25 0 148.5 0 225 0 C225 74.25 225 148.5 225 225 C150.75 225 76.5 225 0 225 C0 150.75 0 76.5 0 0 Z " fill="#01DC82" transform="translate(0,0)"/>
<path d="M0 0 C74.25 0 148.5 0 225 0 C225 55.44 225 110.88 225 168 C222.33281639 164.66602049 220.32347929 162.05074488 218.328125 158.4296875 C217.83715332 157.54756592 217.34618164 156.66544434 216.84033203 155.7565918 C216.31552246 154.8056665 215.79071289 153.85474121 215.25 152.875 C210.33349065 144.06854394 205.28963934 135.35070522 200.125 126.6875 C194.76135727 117.68599238 189.46839442 108.64898559 184.25 99.5625 C181.8365675 95.37312758 179.41937861 91.18594098 177 87 C176.42668945 86.00629395 175.85337891 85.01258789 175.26269531 83.98876953 C173.64437404 81.19429382 172.01217824 78.40845962 170.375 75.625 C169.90223633 74.80459229 169.42947266 73.98418457 168.94238281 73.13891602 C166.06673744 68.28975807 163.40643226 64.17421004 157.82421875 62.25 C153.13269162 61.70108275 149.20175716 61.73935177 145.03515625 64.125 C140.62046303 68.19227974 137.93369702 73.80177102 135.0859375 79.02392578 C133.43243129 82.03280152 131.68160389 84.98025933 129.9375 87.9375 C128.95734817 89.62442798 127.97777252 91.31169182 127 93 C123.72348438 89.9973518 121.63136884 86.9502952 119.4609375 83.08203125 C118.97698769 82.22637825 118.97698769 82.22637825 118.48326111 81.35343933 C117.79621896 80.13719447 117.11205795 78.91931825 116.43057251 77.69995117 C115.36691932 75.79805108 114.29457747 73.90131235 113.21948242 72.00585938 C110.59145373 67.37078396 107.97449265 62.72949975 105.35888672 58.08740234 C104.0197109 55.71926542 102.66830975 53.35863869 101.3125 51 C100.9397998 50.33202393 100.56709961 49.66404785 100.18310547 48.97583008 C97.56513635 44.44665986 94.70034462 41.35017231 90 39 C87.76482384 38.72531734 87.76482384 38.72531734 85.25 38.6875 C84.40953125 38.65011719 83.5690625 38.61273438 82.703125 38.57421875 C77.81728229 39.34380958 74.85440932 41.83773993 71.97265625 45.7578125 C71.34230469 46.86898437 70.71195312 47.98015625 70.0625 49.125 C69.50961304 50.0835791 69.50961304 50.0835791 68.94555664 51.06152344 C68.10000989 52.53077312 67.2608434 54.0037059 66.42675781 55.47949219 C64.25030765 59.32440517 62.03668875 63.14773242 59.82788086 66.97412109 C58.55092132 69.1869899 57.27573742 71.40088418 56.00219727 73.61572266 C51.39794146 81.61525426 46.7197166 89.56786268 42 97.5 C36.098817 107.42117162 30.28498647 117.38849097 24.53027344 127.39526367 C20.12856053 135.04906703 15.70007248 142.68670982 11.25 150.3125 C10.66524902 151.31498779 10.08049805 152.31747559 9.47802734 153.3503418 C5.27726616 160.5440987 5.27726616 160.5440987 3.44824219 163.55151367 C2.20731148 165.6495066 1.09009021 167.81981958 0 170 C0 113.9 0 57.8 0 0 Z " fill="#f7f9fc" transform="translate(0,0)"/>
<path d="M0 0 C0.66 0 1.32 0 2 0 C2.804375 1.47919922 2.804375 1.47919922 3.625 2.98828125 C9.78611003 14.23513697 16.26957996 25.27656852 22.82678223 36.29594421 C23.33791565 37.15492058 23.33791565 37.15492058 23.859375 38.03125 C24.20045288 38.60434402 24.54153076 39.17743805 24.89294434 39.76789856 C28.62200571 46.0380071 32.31699551 52.32772851 36 58.625 C36.60553711 59.65641113 37.21107422 60.68782227 37.83496094 61.75048828 C38.65915527 63.16177002 38.65915527 63.16177002 39.5 64.6015625 C39.9846875 65.42994629 40.469375 66.25833008 40.96875 67.11181641 C42 69 42 69 42 70 C41.00973564 69.94551193 41.00973564 69.94551193 39.99946594 69.8899231 C33.07168666 69.53098622 26.15164537 69.33081271 19.21557617 69.21875 C16.63553226 69.15677859 14.0561014 69.05554239 11.47924805 68.91308594 C-1.00135386 68.12718663 -1.00135386 68.12718663 -13 71 C-19.48371007 76.8410861 -22.98985186 84.95026275 -26 93 C-14.62965301 92.96194079 -3.25963523 92.90257543 8.11045265 92.81609726 C13.39021666 92.77660824 18.66981352 92.74442666 23.94970703 92.72900391 C29.04626601 92.71384684 34.14236553 92.67941786 39.23871994 92.63169098 C41.18189879 92.61686744 43.12514324 92.60895843 45.06837845 92.60811615 C47.79298998 92.60574768 50.51633052 92.578678 53.24072266 92.54589844 C54.04201599 92.5509288 54.84330933 92.55595917 55.66888428 92.56114197 C60.8806547 92.46429276 63.8489427 91.42232291 68 88 C69.29245027 86.16775053 69.29245027 86.16775053 69.875 84.25 C70.431875 82.64125 70.431875 82.64125 71 81 C71.33 81 71.66 81 72 81 C72 97.5 72 114 72 131 C-2.25 131 -76.5 131 -153 131 C-153 114.5 -153 98 -153 81 C-152.34 82.32 -151.68 83.64 -151 85 C-148.61082837 88.34484028 -146.85406903 90.53249881 -143 92 C-139.87700205 92.31005068 -139.87700205 92.31005068 -136.37060547 92.2746582 C-135.38432915 92.2823246 -135.38432915 92.2823246 -134.37812805 92.29014587 C-132.2077214 92.3040256 -130.03763323 92.30308522 -127.8671875 92.30078125 C-126.3498625 92.30467142 -124.83253858 92.30900675 -123.31521606 92.31376648 C-120.13263424 92.32122693 -116.95016331 92.32094043 -113.76757812 92.31567383 C-109.71271114 92.30990444 -105.65830471 92.32674913 -101.60351372 92.3500185 C-98.4668416 92.36484544 -95.33027778 92.36561502 -92.19357681 92.36250877 C-90.70022806 92.36301833 -89.20687265 92.36818653 -87.7135582 92.37832069 C-72.70055901 92.46763918 -59.79312101 89.60096023 -48.4375 79.125 C-38.27508982 68.22903556 -31.63917674 53.96337737 -24.3371582 41.09863281 C-19.35426153 32.32543216 -14.27484396 23.61371031 -9.125 14.9375 C-8.60495392 14.060298 -8.60495392 14.060298 -8.07440186 13.16537476 C-2.40542684 3.60814026 -2.40542684 3.60814026 0 0 Z " fill="#f7f9fc" transform="translate(153,94)"/>
<path d="M0 0 C0.66 0 1.32 0 2 0 C2.43231934 0.75917725 2.86463867 1.51835449 3.31005859 2.30053711 C4.96210819 5.20029003 6.61548192 8.09928208 8.26931763 10.99801636 C9.37161459 12.93156163 10.47187336 14.86625685 11.57202148 16.80102539 C14.75932766 22.39722017 17.95360095 27.98008759 21.32421875 33.46875 C22.03022217 34.62515991 22.03022217 34.62515991 22.75048828 35.80493164 C23.60228863 37.18946385 24.46593636 38.56680228 25.34326172 39.93530273 C28.05434249 44.35707195 28.05434249 44.35707195 27.80493164 47.30786133 C26.81822324 50.60796251 25.3536924 53.30260504 23.6484375 56.296875 C23.14275742 57.18647919 23.14275742 57.18647919 22.62686157 58.09405518 C21.91239685 59.34657357 21.19441445 60.59709115 20.47314453 61.84570312 C19.38958906 63.72470105 18.32104578 65.61164204 17.25390625 67.5 C4.77426103 89.38604071 4.77426103 89.38604071 -7.51977539 93.04858398 C-12.35646621 94.22747468 -17.01263218 94.25362044 -21.96875 94.1953125 C-23.35012146 94.19106766 -23.35012146 94.19106766 -24.75939941 94.18673706 C-27.67307052 94.17562775 -30.58642331 94.15054078 -33.5 94.125 C-35.4869747 94.11495823 -37.47395426 94.10583448 -39.4609375 94.09765625 C-44.30741252 94.07571879 -49.15365247 94.04125361 -54 94 C-49.79221915 86.19614637 -45.44296778 78.48458677 -41 70.8125 C-40.34773438 69.68392578 -39.69546875 68.55535156 -39.0234375 67.39257812 C-34.13663986 58.94138151 -29.2188134 50.50836135 -24.29345703 42.07958984 C-19.79664747 34.37932909 -15.32953055 26.6622651 -10.875 18.9375 C-10.24722656 17.84888672 -9.61945313 16.76027344 -8.97265625 15.63867188 C-5.97185672 10.4314021 -2.97702404 5.22090037 0 0 Z " fill="#f7f9fc" transform="translate(84,70)"/>
</svg>
